<svg width="97" height="92" viewBox="0 0 97 92" fill="none" xmlns="http://www.w3.org/2000/svg">
<g clip-path="url(#clip0)">
<path fill-rule="evenodd" clip-rule="evenodd" d="M48.6246 92L0 63.6498L48.1813 35.6555L96.8059 64.0057L48.6246 92Z" fill="black" fill-opacity="0.1"/>
<path fill-rule="evenodd" clip-rule="evenodd" d="M79.2705 13.4689L72.1945 9.36849L56.0442 0L16.1579 23.1372L32.336 32.5255L39.383 36.6166L56.9185 46.7888L96.7862 23.6528L96.806 23.6423L79.2705 13.4689Z" fill="#FFDDA8"/>
<path fill-rule="evenodd" clip-rule="evenodd" d="M56.251 0.417725L17.405 23.0181L39.1091 35.642L47.236 40.362L57.1285 45.9533L65.2543 41.396L95.9745 23.5239L56.251 0.417725Z" fill="#F9C98A"/>
<path fill-rule="evenodd" clip-rule="evenodd" d="M56.8976 47.04V86.8936L39.4082 76.8214L32.3278 72.7484L16.1579 63.4346V23.3944L32.3278 32.7841L39.4082 36.8839L56.8976 47.04Z" fill="#BC7C46"/>
<path fill-rule="evenodd" clip-rule="evenodd" d="M56.8976 46.9859V86.8935L96.8059 63.8693V23.8121L56.8976 46.9859Z" fill="#DDA866"/>
<path fill-rule="evenodd" clip-rule="evenodd" d="M63.1307 54.3019L62.899 54.4503V49.9832L63.1307 49.8334V54.3019Z" fill="#4F2E16"/>
<path fill-rule="evenodd" clip-rule="evenodd" d="M64.0644 50.4192L63.8756 50.6781L63.0156 50.1989L62.1542 51.5122L61.9655 51.4337L63.0156 49.8334L64.0644 50.4192Z" fill="#4F2E16"/>
<path fill-rule="evenodd" clip-rule="evenodd" d="M65.2291 53.0414L64.9986 53.1911V48.724L65.2291 48.5742V53.0414Z" fill="#4F2E16"/>
<path fill-rule="evenodd" clip-rule="evenodd" d="M66.1633 49.1592L65.9744 49.4207L65.1152 48.94L64.2533 50.2531L64.0644 50.1757L65.1152 48.5742L66.1633 49.1592Z" fill="#4F2E16"/>
<path fill-rule="evenodd" clip-rule="evenodd" d="M66.4574 52.6364L61.6728 55.2897L61.5457 55.2185L61.6728 55.0064L66.4574 52.3517L66.5831 52.4242L66.4574 52.6364Z" fill="#4F2E16"/>
<path fill-rule="evenodd" clip-rule="evenodd" d="M61.5752 49.4932C61.2341 49.6922 60.9552 50.1684 60.9538 50.5611V55.7891C60.9538 56.1818 61.2341 56.3432 61.5766 56.1455L66.1336 53.5335C66.4762 53.3345 66.7537 52.857 66.7537 52.4629L66.7551 47.2363C66.7537 46.8422 66.4762 46.6821 66.1336 46.8785L61.5752 49.4932ZM66.1336 53.816L61.5766 56.4307C61.096 56.7064 60.7061 56.4831 60.7061 55.9317V50.705C60.7061 50.1536 61.096 49.4838 61.5766 49.208L66.1336 46.592C66.6116 46.319 67.0028 46.5422 67.0028 47.0937V52.323C67.0028 52.8705 66.6116 53.543 66.1336 53.816Z" fill="#4F2E16"/>
<path fill-rule="evenodd" clip-rule="evenodd" d="M70.9903 50.253L70.8744 50.1862V46.6762L70.9903 46.4756L71.1061 46.5425L71.1074 50.0549L70.9903 50.253Z" fill="#4F2E16"/>
<path fill-rule="evenodd" clip-rule="evenodd" d="M68.7115 45.7174C68.3689 45.9111 68.09 46.3926 68.0887 46.784V52.0121C68.0887 52.4062 68.3689 52.5649 68.7128 52.3685L73.2685 49.7551C73.6111 49.5588 73.8886 49.08 73.8886 48.6872L73.89 43.4565C73.8886 43.0637 73.6111 42.9064 73.2685 43.1014L68.7115 45.7174ZM73.2685 50.0403L68.7128 52.6536C68.2308 52.9294 67.8423 52.7034 67.8423 52.156V46.9293C67.8423 46.3765 68.2308 45.7053 68.7128 45.4296L73.2685 42.8149C73.7478 42.5405 74.1391 42.7665 74.1391 43.3166V48.5433C74.1391 49.0947 73.7478 49.7659 73.2685 50.0403Z" fill="#4F2E16"/>
<path fill-rule="evenodd" clip-rule="evenodd" d="M72.8798 46.302C72.7017 45.573 71.9254 45.4116 70.9914 45.9722C70.0575 46.5342 69.2812 47.6299 69.1017 48.5741L72.8798 46.302Z" fill="#4F2E16"/>
<path fill-rule="evenodd" clip-rule="evenodd" d="M70.1504 45.986L70.0358 45.9205V45.0655L70.1504 44.8666L70.2663 44.9321V45.787L70.1504 45.986Z" fill="#4F2E16"/>
<path fill-rule="evenodd" clip-rule="evenodd" d="M70.9915 45.9866L70.8756 45.9199V45.0649L70.9915 44.866L71.1061 44.9327V45.7877L70.9915 45.9866Z" fill="#4F2E16"/>
<path fill-rule="evenodd" clip-rule="evenodd" d="M71.4093 45.1466L71.296 45.0824V44.2274L71.4093 44.0272L71.5252 44.0927V44.9477L71.4093 45.1466Z" fill="#4F2E16"/>
<path fill-rule="evenodd" clip-rule="evenodd" d="M75.432 41.5181C75.0882 41.7145 74.8107 42.1934 74.8107 42.5862V47.8164C74.8107 48.2079 75.0882 48.368 75.432 48.1729L79.9881 45.5578C80.3292 45.3614 80.608 44.8825 80.6066 44.4884L80.608 39.2582C80.608 38.8667 80.3292 38.7053 79.9881 38.9031L75.432 41.5181ZM79.9894 45.8417L75.432 48.4554C74.9501 48.7325 74.559 48.5079 74.5603 47.9577L74.559 42.7275C74.559 42.1786 74.9501 41.5074 75.432 41.2316L79.9881 38.6192C80.4659 38.3434 80.8557 38.5667 80.8557 39.1156V44.3458C80.8557 44.8946 80.4659 45.5659 79.9894 45.8417Z" fill="#4F2E16"/>
<path fill-rule="evenodd" clip-rule="evenodd" d="M78.1276 45.6362L78.0105 45.5681V42.0605L78.1276 41.8588L78.2422 41.9268L78.2435 45.4357L78.1276 45.6362Z" fill="#4F2E16"/>
<path fill-rule="evenodd" clip-rule="evenodd" d="M77.2292 46.2823L77.0776 46.2168L77.2292 46.0166L79.0265 44.99L79.1765 45.0555L79.0265 45.2557L77.2292 46.2823Z" fill="#4F2E16"/>
<path fill-rule="evenodd" clip-rule="evenodd" d="M79.1765 40.5996V42.4065C79.1779 42.8957 78.8244 43.4892 78.3956 43.7324L77.4387 44.2717C77.0071 44.5177 76.6578 44.3176 76.6578 43.8311V42.0242L77.1306 41.756V43.6907L77.2612 43.7658L77.3919 43.5434V41.6087L79.1765 40.5996Z" fill="#4F2E16"/>
<path fill-rule="evenodd" clip-rule="evenodd" d="M39.4376 76.8673L32.3705 72.7712V32.5411L39.4376 28.8477V76.8673Z" fill="#9B7451"/>
<path fill-rule="evenodd" clip-rule="evenodd" d="M39.4608 36.7347L39.4237 36.7626L32.3705 32.6856V32.6473L72.2638 9.6084L79.3459 13.6947L39.4608 36.7347Z" fill="#CAAF8F"/>
<path fill-rule="evenodd" clip-rule="evenodd" d="M65.2674 82.022C65.2674 82.022 71.9532 78.1582 85.3248 70.4307L95.0538 76.8871C81.6822 84.6147 74.9964 88.4785 74.9964 88.4785C67.6687 92.2985 61.7077 84.6926 65.2674 82.022Z" fill="black" fill-opacity="0.1"/>
<path d="M83.711 77.1552C86.6998 79.3406 91.5379 79.3406 94.5482 77.1552C96.0534 76.0625 96.806 74.8059 96.806 73.8497V71.7736V70.0272H81.4962V73.1122C81.4532 74.5873 82.1843 76.0352 83.711 77.1552Z" fill="url(#paint0_linear)"/>
<path d="M83.7109 76.2749C86.6998 78.4603 91.5378 78.4603 94.5482 76.2749C96.0533 75.1822 96.8059 73.7343 96.8059 72.2865L96.7629 21.5695H81.4747L81.4962 72.2318C81.4532 73.707 82.1843 75.1549 83.7109 76.2749Z" fill="url(#paint1_linear)"/>
<path d="M83.737 24.7407C86.7298 26.3816 91.5741 26.3816 94.5883 24.7407C96.0954 23.9203 96.8059 22.8538 96.8059 21.7667V21.6026V20.2489L81.4764 20.3104V21.7052C81.4333 22.8127 82.2084 23.8998 83.737 24.7407Z" fill="black" fill-opacity="0.1"/>
<path d="M94.5378 23.7394C91.528 25.5354 86.6909 25.5579 83.7027 23.7394C81.9398 22.6842 81.2304 21.2249 81.5529 19.833C81.6173 19.6085 81.6818 19.384 81.7893 19.1819C82.1333 18.4635 82.7997 17.79 83.7457 17.2063C86.7554 15.4103 91.5925 15.3878 94.5808 17.2063C97.569 19.0023 97.5475 21.9433 94.5378 23.7394Z" fill="#FFDDA8"/>
<path d="M89.1603 24.6593C93.3939 24.6402 96.817 22.654 96.806 20.2229C96.795 17.7918 93.3541 15.8365 89.1206 15.8555C84.887 15.8746 81.4639 17.8608 81.4749 20.2919C81.4859 22.723 84.9268 24.6783 89.1603 24.6593Z" fill="#EABB7D"/>
</g>
<defs>
<linearGradient id="paint0_linear" x1="88.6526" y1="74.5726" x2="88.6526" y2="74.5726" gradientUnits="userSpaceOnUse">
<stop stop-color="#BC7C46"/>
<stop offset="1" stop-color="#D38C4F"/>
</linearGradient>
<linearGradient id="paint1_linear" x1="88.5782" y1="49.7417" x2="88.5782" y2="49.7417" gradientUnits="userSpaceOnUse">
<stop stop-color="#CD9B5D"/>
<stop offset="1" stop-color="#DDA866"/>
</linearGradient>
<clipPath id="clip0">
<rect width="96.8059" height="92" fill="white"/>
</clipPath>
</defs>
</svg>
