<svg width="83" height="92" viewBox="0 0 83 92" fill="none" xmlns="http://www.w3.org/2000/svg">
<path fill-rule="evenodd" clip-rule="evenodd" d="M0 74.7253L43.8758 43.9706L71.0332 60.1616L27.1574 90.9163L0 74.7253Z" fill="black" fill-opacity="0.1"/>
<path fill-rule="evenodd" clip-rule="evenodd" d="M27.5539 41.1341V90.9163L83 52.1991V2.41797L27.5539 41.1341Z" fill="#FABE39"/>
<path fill-rule="evenodd" clip-rule="evenodd" d="M27.5539 91.3999L58.9183 44.0073L83 52.5875L59.232 47.0419L27.5539 91.3999Z" fill="#FDCA40"/>
<path fill-rule="evenodd" clip-rule="evenodd" d="M27.5539 41.256L59.2386 55.1301L83 2.41797L27.5539 41.256Z" fill="#FDCA40"/>
<path fill-rule="evenodd" clip-rule="evenodd" d="M27.5539 41.1569L59.2386 52.2285L83 2.41797L27.5539 41.1569Z" fill="#FBD668"/>
<path fill-rule="evenodd" clip-rule="evenodd" d="M83 2.77269L79.0386 0L23.565 38.8207L27.5281 41.5894L83 2.77269Z" fill="#FCE580"/>
<path fill-rule="evenodd" clip-rule="evenodd" d="M23.565 38.6877L23.57 88.6255L27.5539 91.3999V41.4581L23.565 38.6877Z" fill="#FDCA40"/>
</svg>
