<svg width="16" height="16" viewBox="0 0 16 16" fill="none" xmlns="http://www.w3.org/2000/svg">
<path d="M7.99967 1.33333C11.6817 1.33333 14.6663 4.318 14.6663 8C14.6663 11.682 11.6817 14.6667 7.99967 14.6667C4.31767 14.6667 1.33301 11.682 1.33301 8C1.33301 4.318 4.31767 1.33333 7.99967 1.33333ZM7.99967 11.3333C7.58262 11.3338 7.16921 11.2558 6.78101 11.1033L5.29034 12.5947C6.11077 13.0796 7.04663 13.3348 7.99967 13.3333C8.95272 13.3348 9.88857 13.0796 10.709 12.5947L9.21834 11.1033C8.83014 11.2558 8.41673 11.3338 7.99967 11.3333ZM2.66634 8C2.66634 8.98933 2.93567 9.91533 3.40501 10.7093L4.89634 9.21867C4.74392 8.83047 4.66589 8.41705 4.66634 8C4.66634 7.57 4.74767 7.15933 4.89634 6.78133L3.40501 5.29067C2.92005 6.1111 2.6649 7.04696 2.66634 8ZM12.5943 5.29067L11.103 6.78133C11.2517 7.15933 11.333 7.57 11.333 8C11.333 8.43 11.2517 8.84067 11.103 9.21867L12.5943 10.7093C13.0793 9.8889 13.3344 8.95304 13.333 8C13.3344 7.04696 13.0793 6.1111 12.5943 5.29067ZM7.99967 6C7.46924 6 6.96053 6.21071 6.58546 6.58579C6.21039 6.96086 5.99967 7.46957 5.99967 8C5.99967 8.53043 6.21039 9.03914 6.58546 9.41422C6.96053 9.78929 7.46924 10 7.99967 10C8.53011 10 9.03882 9.78929 9.41389 9.41422C9.78896 9.03914 9.99967 8.53043 9.99967 8C9.99967 7.46957 9.78896 6.96086 9.41389 6.58579C9.03882 6.21071 8.53011 6 7.99967 6ZM7.99967 2.66667C7.04663 2.66523 6.11077 2.92038 5.29034 3.40533L6.78101 4.89667C7.16921 4.74424 7.58262 4.66622 7.99967 4.66667C8.42967 4.66667 8.84034 4.748 9.21834 4.89667L10.709 3.40533C9.88857 2.92038 8.95272 2.66523 7.99967 2.66667Z" fill="#00b5ff"/>
</svg>
