<svg width="80" height="80" viewBox="0 0 80 80" fill="none" xmlns="http://www.w3.org/2000/svg">
<path d="M41.2191 58.7313H31.2192V52.5H41.2191V58.7313Z" fill="#00b5ff"/>
<path d="M67.7367 4.69992C65.5167 2.46367 62.5554 1.23242 59.4042 1.23242H50.4654C43.9879 1.23242 38.7192 6.50242 38.7192 12.9874C38.7192 13.5387 38.7579 14.0974 38.8367 14.6474L39.9429 22.3749H40.2329C40.7779 20.9774 42.1292 19.9837 43.7192 19.9837H44.9692V16.5287C44.9692 14.8149 45.9367 13.2499 47.4692 12.4837C47.4692 13.8637 48.5892 14.9837 49.9692 14.9837H53.7192C55.7642 14.9837 57.5792 14.0024 58.7192 12.4837H59.9692C62.7304 12.4837 64.9692 14.7224 64.9692 17.4837V19.9837H66.2192C67.7967 19.9837 69.1417 20.9612 69.6954 22.3412H69.9704L71.0379 14.5837C71.1092 14.0774 71.1454 13.5637 71.1479 13.0574C71.1704 9.90367 69.9592 6.93617 67.7367 4.69992Z" fill="#00b5ff"/>
<path d="M61.0131 37.5762L60.6244 35.6337C63.5181 34.5099 65.6644 31.8937 66.1194 28.7312H66.2194C68.9769 28.7312 71.2194 26.4887 71.2194 23.7312C71.2194 20.9737 68.9769 18.7312 66.2194 18.7312V17.4812C66.2194 14.3037 63.8269 11.7012 60.7531 11.31C61.0494 10.5037 61.2194 9.63745 61.2194 8.7312H58.7194C58.7194 11.4887 56.4769 13.7312 53.7194 13.7312H49.9694C49.2794 13.7312 48.7194 13.1712 48.7194 12.4812C48.7194 11.7912 49.2794 11.2312 49.9694 11.2312H51.2194V8.7312H49.9694C48.1606 8.7312 46.6456 10.0187 46.2956 11.7262C44.6931 12.7887 43.7194 14.5674 43.7194 16.5274V18.7324C40.9618 18.7324 38.7194 20.9749 38.7194 23.7324C38.7194 26.4899 40.9618 28.7324 43.7194 28.7324H43.8194C44.2756 31.8949 46.4219 34.5112 49.3156 35.6349L48.9256 37.5762C41.1981 38.5012 34.6744 43.8512 32.2418 51.2337H21.2194V61.2787C21.0144 61.2487 20.8056 61.2324 20.5944 61.2324C18.9619 61.2324 17.4944 62.1412 16.7631 63.6024L16.7306 63.6674L2.5731 62.4862L2.3656 64.9762L16.2194 66.1312V71.3324L2.3656 72.4862L2.5731 74.9762L17.5143 73.7312H21.2194V78.7312H48.7194V78.7324H71.2194V72.2137C75.6644 69.9324 78.7194 65.3124 78.7194 59.9812V57.5249C78.7194 47.3574 71.0169 38.7737 61.0131 37.5762ZM68.7194 23.7312C68.7194 25.1099 67.5981 26.2312 66.2194 26.2312V21.2312C67.5968 21.2312 68.7194 22.3537 68.7194 23.7312ZM41.2193 23.7312C41.2193 22.3524 42.3406 21.2312 43.7194 21.2312V26.2312C42.3406 26.2312 41.2193 25.1099 41.2193 23.7312ZM60.5119 40.0537C60.5669 40.0599 60.6219 40.0674 60.6769 40.0737L59.2019 47.4462L56.6444 44.8887L60.5119 40.0537ZM46.2194 27.4812V16.5262C46.2194 15.8087 46.4694 15.1474 46.8769 14.5962C47.5531 15.5812 48.6856 16.2299 49.9694 16.2299H53.7194C55.9331 16.2299 57.9194 15.2599 59.2944 13.7299H59.9694C62.0368 13.7299 63.7194 15.4124 63.7194 17.4799V27.4799C63.7194 30.9262 60.9156 33.7299 57.4694 33.7299H52.4694C49.0231 33.7312 46.2194 30.9274 46.2194 27.4812ZM52.4694 36.2312H57.4694C57.7118 36.2312 57.9494 36.2137 58.1869 36.1949L58.6294 38.4037L54.9694 42.9799L51.3094 38.4049L51.7519 36.1949C51.9894 36.2149 52.2269 36.2312 52.4694 36.2312ZM49.4219 40.0487L53.2943 44.8887L50.7369 47.4462L49.2606 40.0662C49.3144 40.0599 49.3681 40.0549 49.4219 40.0487ZM46.8056 40.5349L48.9444 51.2337H34.8894C36.9156 45.9449 41.3844 41.9762 46.8056 40.5349ZM53.7194 71.2312H47.4694C46.7794 71.2312 46.2194 70.6712 46.2194 69.9812V67.4812C46.2194 66.7912 46.7794 66.2312 47.4694 66.2312H49.4906L50.2481 64.7187C50.5519 64.1099 51.1631 63.7312 51.8431 63.7312C52.5231 63.7312 53.1356 64.1099 53.4394 64.7174L53.7181 65.2749V71.2312H53.7194ZM18.7194 65.2774L18.9994 64.7199C19.3031 64.1112 19.9144 63.7324 20.5944 63.7324C21.2744 63.7324 21.8869 64.1112 22.1906 64.7187L22.9456 66.2324H24.9681C25.6581 66.2324 26.2181 66.7924 26.2181 67.4824V69.9824C26.2181 70.6724 25.6581 71.2324 24.9681 71.2324H18.7181V65.2774H18.7194ZM23.7194 73.7312H24.9694C27.0368 73.7312 28.7194 72.0487 28.7194 69.9812V67.4812C28.7194 65.4137 27.0368 63.7312 24.9694 63.7312H24.4919L24.4269 63.6012C24.2381 63.2224 23.9969 62.8837 23.7194 62.5862V53.7337H48.7194V62.5874C48.4419 62.8849 48.2019 63.2237 48.0131 63.6012L47.9481 63.7312H47.4694C45.4019 63.7312 43.7194 65.4137 43.7194 67.4812V69.9812C43.7194 72.0487 45.4019 73.7312 47.4694 73.7312H48.7194V76.2312H23.7194V73.7312ZM68.7194 76.2324H51.2194V73.7312H64.9694C66.2706 73.7312 67.5256 73.5374 68.7194 73.1987V76.2324ZM76.2194 59.9812C76.2194 64.7824 73.1906 68.8799 68.9469 70.4912H68.7194V70.5749C67.5443 70.9924 66.2856 71.2312 64.9694 71.2312H56.2194V66.2312H63.7194C67.8556 66.2312 71.2194 62.8674 71.2194 58.7312V51.2312H68.7194V58.7312C68.7194 61.4887 66.4769 63.7312 63.7194 63.7312H55.7419L55.6769 63.6012C54.9456 62.1399 53.4769 61.2312 51.8444 61.2312C51.6331 61.2312 51.4244 61.2474 51.2194 61.2774V51.2324H50.4856L53.7194 47.9987V54.9812H56.2194V47.9987L60.7369 52.5162L63.1356 40.5249C70.6856 42.5374 76.2194 49.4612 76.2194 57.5249V59.9812Z" fill="#2E303F"/>
<path d="M16.2192 28.7312V31.2312H18.7192V28.7312C21.4767 28.7312 23.7192 26.4887 23.7192 23.7312C23.7192 20.9737 21.4767 18.7312 18.7192 18.7312H16.2192C14.8404 18.7312 13.7192 17.6099 13.7192 16.2312C13.7192 14.8524 14.8404 13.7312 16.2192 13.7312H18.7192C20.0979 13.7312 21.2192 14.8524 21.2192 16.2312H23.7192C23.7192 13.4737 21.4767 11.2312 18.7192 11.2312V8.7312H16.2192V11.2312C13.4617 11.2312 11.2192 13.4737 11.2192 16.2312C11.2192 18.9887 13.4617 21.2312 16.2192 21.2312H18.7192C20.0979 21.2312 21.2192 22.3524 21.2192 23.7312C21.2192 25.1099 20.0979 26.2312 18.7192 26.2312H16.2192C14.8404 26.2312 13.7192 25.1099 13.7192 23.7312V22.4812H11.2192V23.7312C11.2192 26.4887 13.4617 28.7312 16.2192 28.7312Z" fill="#2E303F"/>
<path d="M17.4692 36.2312C26.4292 36.2312 33.7192 28.9412 33.7192 19.9812C33.7192 11.0212 26.4292 3.7312 17.4692 3.7312C8.50918 3.7312 1.21918 11.0212 1.21918 19.9812C1.21918 28.9412 8.50918 36.2312 17.4692 36.2312ZM17.4692 6.2312C25.0504 6.2312 31.2192 12.3999 31.2192 19.9812C31.2192 27.5624 25.0504 33.7312 17.4692 33.7312C9.88793 33.7312 3.71918 27.5624 3.71918 19.9812C3.71918 12.3999 9.88668 6.2312 17.4692 6.2312Z" fill="#2E303F"/>
<path d="M49.9692 21.2324C50.6595 21.2324 51.2192 20.6728 51.2192 19.9824C51.2192 19.2921 50.6595 18.7324 49.9692 18.7324C49.2788 18.7324 48.7192 19.2921 48.7192 19.9824C48.7192 20.6728 49.2788 21.2324 49.9692 21.2324Z" fill="#2E303F"/>
<path d="M59.9692 21.2324C60.6595 21.2324 61.2192 20.6728 61.2192 19.9824C61.2192 19.2921 60.6595 18.7324 59.9692 18.7324C59.2788 18.7324 58.7192 19.2921 58.7192 19.9824C58.7192 20.6728 59.2788 21.2324 59.9692 21.2324Z" fill="#2E303F"/>
<path d="M59.9692 26.2312H57.4692C57.4692 27.61 56.3479 28.7312 54.9692 28.7312C53.5904 28.7312 52.4692 27.61 52.4692 26.2312H49.9692C49.9692 28.9887 52.2117 31.2312 54.9692 31.2312C57.7267 31.2312 59.9692 28.9887 59.9692 26.2312Z" fill="#2E303F"/>
<path d="M61.2192 53.7312H66.2192V56.2312H61.2192V53.7312Z" fill="#2E303F"/>
</svg>
