<svg width="16" height="16" viewBox="0 0 16 16" fill="none" xmlns="http://www.w3.org/2000/svg">
<path d="M13.3333 8.67333H8.66667V6.66667H9.33333C10.0687 6.66667 10.6667 6.06867 10.6667 5.33333V2.66667C10.6667 1.93133 10.0687 1.33333 9.33333 1.33333H6.66667C5.93133 1.33333 5.33333 1.93133 5.33333 2.66667V5.33333C5.33333 6.06867 5.93133 6.66667 6.66667 6.66667H7.33333V8.67333H2.66667V12H2V14.6667H4.66667V12H4V10.0067H7.33333V12H6.66667V14.6667H9.33333V12H8.66667V10.0067H12V12H11.3333V14.6667H14V12H13.3333V8.67333ZM6.66667 5.33333V2.66667H9.33333L9.33467 5.33333H6.66667Z" fill="#00b5ff"/>
</svg>
