<svg width="40" height="40" viewBox="0 0 40 40" fill="none" xmlns="http://www.w3.org/2000/svg">
<circle opacity="0.8" cx="20" cy="20" r="20" fill="#080708"/>
<path d="M20 27.4167L24.125 23.2917C24.9408 22.4759 25.4963 21.4365 25.7213 20.3049C25.9463 19.1734 25.8308 18.0005 25.3892 16.9346C24.9477 15.8688 24.2 14.9578 23.2408 14.3168C22.2815 13.6759 21.1537 13.3338 20 13.3338C18.8463 13.3338 17.7185 13.6759 16.7592 14.3168C15.8 14.9578 15.0523 15.8688 14.6108 16.9346C14.1692 18.0005 14.0537 19.1734 14.2787 20.3049C14.5037 21.4365 15.0593 22.4759 15.875 23.2917L20 27.4167ZM20 29.7733L14.6967 24.47C13.6478 23.4211 12.9335 22.0847 12.6441 20.6299C12.3547 19.175 12.5033 17.667 13.0709 16.2966C13.6386 14.9262 14.5999 13.7548 15.8332 12.9307C17.0666 12.1066 18.5166 11.6667 20 11.6667C21.4834 11.6667 22.9334 12.1066 24.1668 12.9307C25.4001 13.7548 26.3614 14.9262 26.9291 16.2966C27.4968 17.667 27.6453 19.175 27.3559 20.6299C27.0665 22.0847 26.3522 23.4211 25.3033 24.47L20 29.7733V29.7733ZM20 20.8333C20.442 20.8333 20.866 20.6578 21.1785 20.3452C21.4911 20.0326 21.6667 19.6087 21.6667 19.1667C21.6667 18.7247 21.4911 18.3007 21.1785 17.9882C20.866 17.6756 20.442 17.5 20 17.5C19.558 17.5 19.1341 17.6756 18.8215 17.9882C18.5089 18.3007 18.3333 18.7247 18.3333 19.1667C18.3333 19.6087 18.5089 20.0326 18.8215 20.3452C19.1341 20.6578 19.558 20.8333 20 20.8333ZM20 22.5C19.1159 22.5 18.2681 22.1488 17.643 21.5237C17.0179 20.8986 16.6667 20.0507 16.6667 19.1667C16.6667 18.2826 17.0179 17.4348 17.643 16.8097C18.2681 16.1845 19.1159 15.8333 20 15.8333C20.8841 15.8333 21.7319 16.1845 22.357 16.8097C22.9821 17.4348 23.3333 18.2826 23.3333 19.1667C23.3333 20.0507 22.9821 20.8986 22.357 21.5237C21.7319 22.1488 20.8841 22.5 20 22.5Z" fill="#00b5ff"/>
</svg>
