<svg width="80" height="80" viewBox="0 0 80 80" fill="none" xmlns="http://www.w3.org/2000/svg">
<path d="M22.5 35.6493C19.0538 35.6493 16.25 32.8455 16.25 29.3993C16.25 25.953 19.0538 23.1493 22.5 23.1493C25.9462 23.1493 28.75 25.953 28.75 29.3993C28.75 32.8455 25.9462 35.6493 22.5 35.6493Z" fill="#00b5ff"/>
<path d="M68.6112 63.1493H56.3875C54.7625 64.7393 53.75 66.9518 53.75 69.3993C53.75 74.223 57.675 78.1493 62.5 78.1493C67.325 78.1493 71.25 74.223 71.25 69.3993C71.25 66.9518 70.2375 64.7393 68.6112 63.1493ZM62.5 71.8993C61.1213 71.8993 60 70.778 60 69.3993C60 68.0205 61.1213 66.8993 62.5 66.8993C63.8787 66.8993 65 68.0205 65 69.3993C65 70.778 63.8787 71.8993 62.5 71.8993Z" fill="#00b5ff"/>
<path d="M33.75 68.1493H36.25V70.6493H33.75V68.1493Z" fill="#2E303F"/>
<path d="M8.75 68.1493H11.25V70.6493H8.75V68.1493Z" fill="#2E303F"/>
<path d="M20 73.1493H25C27.0675 73.1493 28.75 71.4668 28.75 69.3993C28.75 67.3318 27.0675 65.6493 25 65.6493H20C17.9325 65.6493 16.25 67.3318 16.25 69.3993C16.25 71.4668 17.9325 73.1493 20 73.1493ZM20 68.1493H25C25.6888 68.1493 26.25 68.7093 26.25 69.3993C26.25 70.0893 25.6888 70.6493 25 70.6493H20C19.3112 70.6493 18.75 70.0893 18.75 69.3993C18.75 68.7093 19.3112 68.1493 20 68.1493Z" fill="#2E303F"/>
<path d="M16.0863 46.7355C13.07 47.8668 11.25 49.7493 11.25 51.8993C11.25 55.463 16.0862 58.1493 22.5 58.1493C28.9137 58.1493 33.75 55.463 33.75 51.8993C33.75 49.7493 31.93 47.8668 28.9137 46.7355C32.4088 42.2768 36.25 35.8993 36.25 29.3993C36.25 21.818 30.0812 15.6493 22.5 15.6493C14.9187 15.6493 8.75 21.818 8.75 29.3993C8.75 35.8993 12.5913 42.2768 16.0863 46.7355ZM31.25 51.8993C31.25 53.6693 27.5075 55.6493 22.5 55.6493C17.4925 55.6493 13.75 53.6693 13.75 51.8993C13.75 50.733 15.38 49.508 17.7863 48.7968C19.8387 51.1668 21.48 52.6618 21.665 52.828L22.5 53.5818L23.3363 52.828C23.5213 52.6618 25.1625 51.1668 27.215 48.7968C29.62 49.508 31.25 50.733 31.25 51.8993ZM22.5 18.1493C28.7025 18.1493 33.75 23.1955 33.75 29.3993C33.75 38.3018 25.2362 47.4555 22.5 50.168C19.7612 47.458 11.25 38.3155 11.25 29.3993C11.25 23.1955 16.2975 18.1493 22.5 18.1493Z" fill="#2E303F"/>
<path d="M76.25 60.6493V42.6555C76.25 41.9105 76.0325 41.1918 75.62 40.5755L71.7825 34.8193C71.085 33.773 69.9187 33.1493 68.6625 33.1493H53.75V25.6493H56.25C57.6287 25.6493 58.75 24.528 58.75 23.1493V20.6493C58.75 19.2705 57.6287 18.1493 56.25 18.1493H43.75V6.89929C43.75 3.45304 40.9463 0.649292 37.5 0.649292H7.5C4.05375 0.649292 1.25 3.45304 1.25 6.89929V71.8993C1.25 75.3456 4.05375 78.1493 7.5 78.1493H37.5C40.9463 78.1493 43.75 75.3456 43.75 71.8993V68.1493H53.85C53.9775 67.2655 54.2363 66.4268 54.6087 65.6493H43.75V63.1493H56.3887H68.6125H76.25V65.6493H70.3913C70.7637 66.4268 71.0225 67.2655 71.15 68.1493H76.25C77.6288 68.1493 78.75 67.028 78.75 65.6493V63.1493C78.75 61.7705 77.6288 60.6493 76.25 60.6493ZM73.75 60.6493H71.25V58.1493H73.75V60.6493ZM73.75 42.6555V48.1493H58.75V40.6493H72.6637L73.54 41.9643C73.6775 42.1693 73.75 42.408 73.75 42.6555ZM56.25 20.6493V23.1493H43.75V20.6493H56.25ZM41.25 60.6493H3.75V13.1493H41.25V60.6493ZM16.25 3.14929H28.75V5.64929H16.25V3.14929ZM7.5 3.14929H13.75V5.64929C13.75 7.02804 14.8713 8.14929 16.25 8.14929H28.75C30.1287 8.14929 31.25 7.02804 31.25 5.64929V3.14929H37.5C39.5675 3.14929 41.25 4.83179 41.25 6.89929V10.6493H3.75V6.89929C3.75 4.83179 5.4325 3.14929 7.5 3.14929ZM41.25 71.8993C41.25 73.9668 39.5675 75.6493 37.5 75.6493H7.5C5.4325 75.6493 3.75 73.9668 3.75 71.8993V63.1493H41.25V71.8993ZM43.75 25.6493H51.25V60.6493H48.75V28.1493H46.25V60.6493H43.75V25.6493ZM53.75 60.6493V35.6493H68.6625C69.0813 35.6493 69.47 35.8568 69.7025 36.2055L70.9975 38.1493H58.75C57.3713 38.1493 56.25 39.2705 56.25 40.6493V48.1493C56.25 49.528 57.3713 50.6493 58.75 50.6493H73.75V55.6493H68.75V60.6493H53.75Z" fill="#2E303F"/>
<path d="M62.5 65.6493C60.4325 65.6493 58.75 67.3318 58.75 69.3993C58.75 71.4668 60.4325 73.1493 62.5 73.1493C64.5675 73.1493 66.25 71.4668 66.25 69.3993C66.25 67.3318 64.5675 65.6493 62.5 65.6493ZM62.5 70.6493C61.8112 70.6493 61.25 70.0893 61.25 69.3993C61.25 68.7093 61.8112 68.1493 62.5 68.1493C63.1887 68.1493 63.75 68.7093 63.75 69.3993C63.75 70.0893 63.1887 70.6493 62.5 70.6493Z" fill="#2E303F"/>
</svg>
