<svg width="80" height="80" viewBox="0 0 80 80" fill="none" xmlns="http://www.w3.org/2000/svg">
<path d="M40 68.75C37.9325 68.75 36.25 67.0675 36.25 65C36.25 62.9325 37.9325 61.25 40 61.25C42.0675 61.25 43.75 62.9325 43.75 65C43.75 67.0675 42.0675 68.75 40 68.75Z" fill="#00b5ff"/>
<path d="M51.25 35H68.75V55H51.25V35Z" fill="#00b5ff"/>
<path d="M72.5 18.75H66.25V11.25H51.1175C47.5775 5.06625 41.05 1.25 33.8862 1.25H33.6125C23.4625 1.25 15.0775 8.90875 13.9038 18.75H7.5C4.05375 18.75 1.25 21.5537 1.25 25V65C1.25 68.4463 4.05375 71.25 7.5 71.25H28.75V76.25H23.75V78.75H56.25V76.25H51.25V71.25H72.5C75.9463 71.25 78.75 68.4463 78.75 65V25C78.75 21.5537 75.9463 18.75 72.5 18.75ZM17.935 33.3075L26.5987 44.4475C21.6437 45.48 18.75 47.4938 18.75 50C18.75 54.1037 26.2962 56.25 33.75 56.25C41.2038 56.25 48.75 54.1037 48.75 50C48.75 47.4938 45.855 45.48 40.9013 44.4475L49.565 33.3075C50.0713 32.6562 50.5262 31.9613 50.9487 31.25H66.25V26.25H71.25V58.75H8.75V26.25H14.44C15.125 28.7987 16.3037 31.2125 17.935 33.3075ZM39.1625 46.6825C43.9712 47.47 46.25 49.0925 46.25 50C46.25 51.4925 41.265 53.75 33.75 53.75C26.235 53.75 21.25 51.4925 21.25 50C21.25 49.0925 23.5288 47.47 28.3363 46.6838L30.745 49.7812C31.4725 50.715 32.5675 51.25 33.75 51.25C34.9325 51.25 36.0275 50.715 36.7537 49.78L39.1625 46.6825ZM60.07 25.2087C58.075 23.8787 56.7212 22.9762 55.775 22.3713L63.75 15.2838V27.6637L60.07 25.2087ZM53.275 21.25H47.4212C47.1763 21.25 46.945 21.25 46.73 21.2562C45.4775 20.1425 41.0987 16.25 38.2875 13.75H61.7125L53.275 21.25ZM36.25 15.2838L39.7937 18.435C41.895 20.3025 43.2813 21.535 44.2325 22.3425L36.25 27.6637V15.2838ZM33.75 11.25V31.25H41.2375C39.0975 32.8563 36.4875 33.75 33.75 33.75C26.8575 33.75 21.25 28.1425 21.25 21.25C21.25 14.3575 26.8575 8.75 33.75 8.75C36.4862 8.75 39.0963 9.64375 41.2375 11.25H33.75ZM39.1275 28.75L46.6275 23.7488C47.8887 23.7488 52.1 23.75 53.3725 23.75C54.4138 24.4425 58.0625 26.8762 60.8725 28.75H39.1275ZM33.6138 3.75H33.8875C39.655 3.75 44.9538 6.58 48.1738 11.25H44.9038C42.055 8.075 38.035 6.25 33.75 6.25C25.4788 6.25 18.75 12.9788 18.75 21.25C18.75 29.5212 25.4788 36.25 33.75 36.25C38.0337 36.25 42.055 34.425 44.9025 31.25H47.9663C47.8413 31.4237 47.7238 31.605 47.5925 31.7738L34.7812 48.245C34.2812 48.8875 33.2188 48.8862 32.7188 48.245L19.9075 31.7738C17.5487 28.7413 16.25 24.955 16.25 21.1138C16.25 11.5388 24.0388 3.75 33.6138 3.75ZM48.75 76.25H31.25V71.25H48.75V76.25ZM76.25 65C76.25 67.0675 74.5675 68.75 72.5 68.75H7.5C5.4325 68.75 3.75 67.0675 3.75 65V25C3.75 22.9325 5.4325 21.25 7.5 21.25H13.7563C13.7625 22.0888 13.8325 22.9225 13.945 23.75H8.75C7.37125 23.75 6.25 24.8713 6.25 26.25V58.75C6.25 60.1287 7.37125 61.25 8.75 61.25H71.25C72.6288 61.25 73.75 60.1287 73.75 58.75V26.25C73.75 24.8713 72.6288 23.75 71.25 23.75H66.25V21.25H72.5C74.5675 21.25 76.25 22.9325 76.25 25V65Z" fill="#2E303F"/>
<path d="M56.25 48.75H58.75V51.25H56.25V48.75Z" fill="#2E303F"/>
<path d="M61.25 48.75H63.75V51.25H61.25V48.75Z" fill="#2E303F"/>
<path d="M66.25 48.75H68.75V51.25H66.25V48.75Z" fill="#2E303F"/>
<path d="M51.25 48.75H53.75V51.25H51.25V48.75Z" fill="#2E303F"/>
<path d="M51.25 43.75H68.75V46.25H51.25V43.75Z" fill="#2E303F"/>
<path d="M51.25 53.75H68.75V56.25H51.25V53.75Z" fill="#2E303F"/>
<path d="M58.75 38.75H68.75V41.25H58.75V38.75Z" fill="#2E303F"/>
<path d="M51.25 38.75H56.25V41.25H51.25V38.75Z" fill="#2E303F"/>
<path d="M51.25 33.75H68.75V36.25H51.25V33.75Z" fill="#2E303F"/>
</svg>
