<svg width="80" height="80" viewBox="0 0 80 80" fill="none" xmlns="http://www.w3.org/2000/svg">
<path d="M1.25 17.5V25.3625C1.25 31.0125 4.38875 36.0913 9.44125 38.6175L9.7025 38.7475L10 38.75V30L8.56375 28.5638C7.8825 27.8825 7.5 26.9588 7.5 25.995C7.5 24.6188 8.2775 23.3613 9.5075 22.7463L10 22.5V17.5H1.25Z" fill="#00b5ff"/>
<path d="M38.7191 58.7312H28.7191V52.5H38.7191V58.7312Z" fill="#00b5ff"/>
<path d="M77.2601 37.4161C76.5788 36.3924 76.2188 35.2024 76.2188 33.9786V32.9886C76.2188 32.0324 76.4451 31.0761 76.8726 30.2186L77.2663 29.4311C78.2601 27.4436 78.4576 25.1761 77.8176 23.0449L77.3213 21.3924C75.7238 16.0636 70.9126 12.4836 65.3475 12.4836H56.9275C51.7113 12.4836 47.4675 16.7274 47.4675 21.9411V22.8111C47.4675 26.4924 49.5363 29.8161 52.7438 31.3024L52.8025 31.3574L53.0888 30.9274C53.5 30.3111 53.7188 29.5874 53.7188 28.8474V24.3224C53.7188 22.6149 55.1025 21.2324 56.8088 21.2324C57.98 21.2324 59.05 21.8936 59.5725 22.9399C60.655 25.1061 62.2275 26.9874 64.1625 28.4411L66.2188 29.9824H66.4151C68.3776 29.9824 69.9688 31.5724 69.9688 33.5361C69.9688 34.4886 69.5851 35.4036 68.9051 36.0711L67.4688 37.4824L67.4926 46.2361C70.8051 46.6574 73.6276 48.4749 75.4176 51.0486L76.9788 48.9674C78.0988 47.4724 78.7176 45.6186 78.7176 43.7511V42.2361C78.7188 40.5136 78.2138 38.8461 77.2601 37.4161ZM53.2313 30.4774L53.165 30.5486L53.325 30.1949L53.2313 30.4774Z" fill="#00b5ff"/>
<path d="M68.7191 45.1812V38.0062L69.7804 36.9637C70.6941 36.0674 71.2191 34.8187 71.2191 33.5375C71.2191 30.9637 69.1866 28.8575 66.6429 28.7374L64.9141 27.4425C63.1391 26.11 61.6791 24.3587 60.6916 22.3812C59.9529 20.9012 58.4654 19.9825 56.8104 19.9825C54.4166 19.9825 52.4704 21.93 52.4704 24.3237V28.8487C52.4704 29.3437 52.3254 29.8237 52.0504 30.235L50.5029 32.555C50.1554 33.0775 49.9704 33.6849 49.9704 34.3137C49.9704 36.06 51.3929 37.4825 53.1404 37.4825H53.7204V38.7312C53.7204 40.0662 54.2404 41.3224 55.1841 42.2674C56.1279 43.2112 57.3829 43.7312 58.7166 43.7312H58.7191V49.5212C56.3754 51.8337 54.7316 54.825 54.0629 58.1512L51.2191 55.6624V53.9462C51.2191 52.6837 50.7066 51.45 49.8191 50.5649L49.3879 50.13C48.4829 49.2262 47.2816 48.7299 46.0066 48.7299C46.0054 48.7299 46.0054 48.7299 46.0041 48.7299C44.7279 48.7299 43.5266 49.2275 42.6216 50.1312C42.2941 50.4587 42.0404 50.8362 41.8241 51.2312H21.9404C21.1154 49.2012 20.0341 47.315 18.7191 45.6125V36.2299H18.7216C20.0554 36.2299 21.3104 35.7099 22.2554 34.7662C23.1991 33.8212 23.7191 32.5649 23.7191 31.2299V29.9812H24.2991C26.0466 29.9812 27.4691 28.5587 27.4691 26.8125C27.4691 26.1837 27.2854 25.5762 26.9366 25.0537L25.3891 22.7337C25.1141 22.3225 24.9691 21.8425 24.9691 21.3475V18.7312H28.7191C30.7866 18.7312 32.4691 17.0487 32.4691 14.9812C32.4691 12.9137 30.7866 11.2312 28.7191 11.2312H24.8804C24.2716 6.9962 20.6204 3.7312 16.2191 3.7312H9.96912C5.14412 3.7312 1.21912 7.65745 1.21912 12.4812V18.7312H8.71912V21.7137C7.17162 22.5775 6.21912 24.1912 6.21912 25.9774C6.21912 27.2624 6.74037 28.5224 7.65037 29.4324L8.71912 30.5V39.1187C4.19787 41.0075 1.21912 45.4262 1.21912 50.3862V59.9812C1.21912 67.5625 7.38787 73.7312 14.9691 73.7312H18.7191V76.2312C18.7191 77.61 19.8404 78.7312 21.2191 78.7312H46.2191C47.5979 78.7312 48.7191 77.61 48.7191 76.2312V65.8825L50.0016 67.6774C51.0241 69.1099 52.2904 70.3224 53.7191 71.2787V78.7299H76.2191V62.2725C77.6666 61.78 78.7191 60.4237 78.7191 58.8112V57.5612C78.7191 51.56 74.4904 46.4225 68.7191 45.1812ZM63.7191 43.7312V41.2312H58.7191H58.7179C58.0516 41.2312 57.4241 40.9712 56.9529 40.5C56.4804 40.0275 56.2204 39.3987 56.2204 38.7312V34.9825H53.1404C52.7716 34.9825 52.4704 34.6825 52.4704 34.3137C52.4704 34.1812 52.5091 34.0512 52.5829 33.9412L54.1304 31.6212C54.6791 30.7987 54.9704 29.8387 54.9704 28.8475V24.3225C54.9704 23.3062 55.7966 22.4812 56.8104 22.4812C57.5129 22.4812 58.1429 22.8712 58.4554 23.4975C59.6154 25.8187 61.3291 27.8737 63.4141 29.4412L65.8041 31.2312H66.4166C67.6879 31.2312 68.7204 32.265 68.7204 33.5362C68.7204 34.15 68.4691 34.7487 68.0304 35.1787L66.2204 36.9575V45.2512C64.4079 45.7312 62.7266 46.4975 61.2204 47.5V43.7312H63.7191ZM67.5129 47.4987C72.4891 48.2212 76.2179 52.5112 76.2179 57.5612V58.8112C76.2179 59.4575 75.6929 59.9825 75.0466 59.9825H68.7179V53.7325H66.2179V59.9887C66.2141 62.0537 64.5341 63.7325 62.4679 63.7325H61.8466C60.9379 63.7325 60.0604 63.4025 59.3779 62.8062L56.2966 60.1087C56.8891 53.9262 61.4104 48.81 67.5129 47.4987ZM28.7191 13.7312C29.4079 13.7312 29.9691 14.2912 29.9691 14.9812C29.9691 15.6712 29.4079 16.2312 28.7191 16.2312H24.9691H22.4691H14.9691L16.4679 14.2325C16.7041 13.9187 17.0779 13.7312 17.4691 13.7312H28.7191ZM3.71912 16.2312V12.4812C3.71912 9.03495 6.52287 6.2312 9.96912 6.2312H16.2191C19.2379 6.2312 21.7629 8.38245 22.3429 11.2312H17.4691C16.2966 11.2312 15.1754 11.7912 14.4691 12.7325L11.8441 16.2312H11.2191H8.71912H3.71912ZM10.0341 23.8462L11.2191 23.255V18.7312H22.4691V21.3475C22.4691 22.3387 22.7591 23.2987 23.3091 24.1212L24.8566 26.4412C24.9304 26.5512 24.9691 26.68 24.9691 26.8137C24.9691 27.1825 24.6679 27.4825 24.2991 27.4825H21.2191V31.2312C21.2191 31.8987 20.9591 32.5275 20.4866 33C20.0154 33.4712 19.3879 33.7312 18.7204 33.7312H18.7191H13.7191V36.2312H16.2191V42.8387C14.7316 41.4387 13.0491 40.2412 11.2191 39.25V29.4625L9.41662 27.6637C8.97412 27.2212 8.71912 26.6049 8.71912 25.9774C8.71912 25.07 9.22412 24.2512 10.0341 23.8462ZM9.88162 41.3425C14.2391 43.6562 17.6066 47.3762 19.5191 51.91C19.0304 52.3662 18.7191 53.0125 18.7191 53.7325V63.8137L16.5191 63.4749C13.4479 63.0012 11.2191 60.4037 11.2191 57.2987V48.7312H8.71912V56.2312H3.71912V50.3875C3.71912 46.37 6.17537 42.7975 9.88162 41.3425ZM3.71912 59.9812V58.7312H8.84037C9.44037 62.4237 12.3229 65.3575 16.1391 65.945L27.0716 67.6262L27.8029 65.43C28.1416 64.4137 29.0891 63.7312 30.1591 63.7312C31.1066 63.7312 31.9579 64.2575 32.3816 65.1037L32.9441 66.2312H34.9679C35.6566 66.2312 36.2179 66.7912 36.2179 67.4812V69.9812C36.2179 70.6712 35.6566 71.2312 34.9679 71.2312H14.9679C8.76662 71.2312 3.71912 66.185 3.71912 59.9812ZM46.2191 76.2312H21.2191V73.7312H34.9691C37.0366 73.7312 38.7191 72.0487 38.7191 69.9812V67.4812C38.7191 65.4137 37.0366 63.7312 34.9691 63.7312H34.4829C33.5941 62.1824 31.9629 61.2312 30.1604 61.2312C28.0129 61.2312 26.1129 62.6012 25.4316 64.64L25.3666 64.8362L21.2191 64.1987V53.7337H41.2191V53.8512C41.2191 54.8562 41.5279 55.8175 42.1104 56.6312L46.2191 62.3837V76.2312ZM52.0366 66.2249L44.1441 55.1749C43.8666 54.7862 43.7191 54.3274 43.7191 53.8487V53.5149C43.7191 52.9049 43.9566 52.3312 44.3891 51.8987C44.8216 51.4675 45.3941 51.2299 46.0041 51.2299H46.0054C46.6141 51.2299 47.1879 51.4674 47.6179 51.8962L48.0504 52.3312C48.4754 52.755 48.7191 53.3437 48.7191 53.9462V56.7975L57.7329 64.6862C58.8729 65.6824 60.3341 66.2299 61.8479 66.2299H62.4691C65.0254 66.2299 67.2216 64.6837 68.1891 62.4799H73.2716C71.8529 67.5562 67.1466 71.2299 61.7641 71.2299C57.9116 71.2312 54.2741 69.3599 52.0366 66.2249ZM56.2191 76.2312V72.5987C57.9579 73.3237 59.8354 73.7312 61.7654 73.7312C66.6541 73.7312 71.0879 71.2262 73.7191 67.3774V76.2312H56.2191Z" fill="#2E303F"/>
<path d="M29.9691 32.4812V39.9812C29.9691 42.0487 31.6516 43.7312 33.7191 43.7312H35.4466L37.1079 47.0524C37.6254 48.0874 38.6666 48.7312 39.8241 48.7312C41.2216 48.7312 42.4328 47.7849 42.7703 46.4299L43.4453 43.7312H43.7191C45.7866 43.7312 47.4691 42.0487 47.4691 39.9812V32.4812C47.4691 30.4137 45.7866 28.7312 43.7191 28.7312H33.7191C31.6516 28.7312 29.9691 30.4137 29.9691 32.4812ZM32.4691 32.4812C32.4691 31.7912 33.0304 31.2312 33.7191 31.2312H43.7191C44.4078 31.2312 44.9691 31.7912 44.9691 32.4812V39.9812C44.9691 40.6712 44.4078 41.2312 43.7191 41.2312H41.4928L40.3453 45.8249C40.2366 46.2637 39.5453 46.3399 39.3441 45.9349L36.9929 41.2312H33.7204C33.0316 41.2312 32.4704 40.6712 32.4704 39.9812V32.4812H32.4691Z" fill="#2E303F"/>
<path d="M37.4691 13.7312H37.7429L38.4179 16.43C38.7566 17.785 39.9679 18.7312 41.3641 18.7312C42.5216 18.7312 43.5628 18.0875 44.0803 17.0525L45.7416 13.7312H47.4691C49.5366 13.7312 51.2191 12.0487 51.2191 9.9812V4.9812C51.2191 2.9137 49.5366 1.2312 47.4691 1.2312H37.4691C35.4016 1.2312 33.7191 2.9137 33.7191 4.9812V9.9812C33.7191 12.05 35.4016 13.7312 37.4691 13.7312ZM36.2191 4.9812C36.2191 4.2912 36.7804 3.7312 37.4691 3.7312H47.4691C48.1578 3.7312 48.7191 4.2912 48.7191 4.9812V9.9812C48.7191 10.6712 48.1578 11.2312 47.4691 11.2312H44.1966L41.8454 15.935C41.6441 16.3387 40.9541 16.2637 40.8441 15.825L39.6966 11.2312H37.4704C36.7816 11.2312 36.2204 10.6712 36.2204 9.9812V4.9812H36.2191Z" fill="#2E303F"/>
<path d="M43.3533 34.6149L41.5858 32.8474L37.4696 36.9637L35.8533 35.3474L34.0858 37.1149L37.4696 40.4987L43.3533 34.6149Z" fill="#2E303F"/>
</svg>
