<svg width="80" height="80" viewBox="0 0 80 80" fill="none" xmlns="http://www.w3.org/2000/svg">
<path d="M56.25 62.5H73.75V73.75H56.25V62.5Z" fill="#00b5ff"/>
<path d="M52.5 40C49.275 40 46.2775 39.0487 43.75 37.4287V48.75H61.25V37.4287C58.7225 39.0487 55.725 40 52.5 40Z" fill="#00b5ff"/>
<path d="M75 36.25H64.7237C67.9737 33.0713 70 28.645 70 23.75C70 20.0125 68.8125 16.5537 66.81 13.7075L70.5175 10L65 4.4825L61.01 8.4725C59.9075 7.855 58.7325 7.355 57.5 6.9875V3.75H60V1.25H45V3.75H47.5V6.9875C46.2675 7.35625 45.0925 7.85625 43.99 8.4725L40 4.4825L34.4825 10L38.19 13.7075C36.1875 16.5537 35 20.0125 35 23.75C35 28.645 37.0263 33.0713 40.2763 36.25H30C27.9325 36.25 26.25 37.9325 26.25 40V75C26.25 77.0675 27.9325 78.75 30 78.75H75C77.0675 78.75 78.75 77.0675 78.75 75V40C78.75 37.9325 77.0675 36.25 75 36.25ZM65 8.0175L66.9825 10L65.2175 11.765C64.575 11.0825 63.8787 10.455 63.1338 9.88375L65 8.0175ZM50 3.75H55V6.45C54.1812 6.33125 53.3512 6.25 52.5 6.25C51.6488 6.25 50.8188 6.33125 50 6.45V3.75ZM38.0175 10L40 8.0175L41.8663 9.88375C41.1225 10.4563 40.4263 11.0837 39.7825 11.765L38.0175 10ZM37.5 23.75C37.5 15.4788 44.2288 8.75 52.5 8.75C60.7713 8.75 67.5 15.4788 67.5 23.75C67.5 32.0212 60.7713 38.75 52.5 38.75C44.2288 38.75 37.5 32.0212 37.5 23.75ZM76.25 75C76.25 75.6888 75.6888 76.25 75 76.25H30C29.3112 76.25 28.75 75.6888 28.75 75V40C28.75 39.3112 29.3112 38.75 30 38.75H43.5325C46.1588 40.3262 49.22 41.25 52.5 41.25C55.78 41.25 58.8413 40.3262 61.4675 38.75H75C75.6888 38.75 76.25 39.3112 76.25 40V75Z" fill="#2E303F"/>
<path d="M48.75 43.75H51.25V48.75H48.75V43.75Z" fill="#2E303F"/>
<path d="M53.75 43.75H56.25V48.75H53.75V43.75Z" fill="#2E303F"/>
<path d="M52.5 36.25C59.3925 36.25 65 30.6425 65 23.75C65 16.8575 59.3925 11.25 52.5 11.25C45.6075 11.25 40 16.8575 40 23.75C40 30.6425 45.6075 36.25 52.5 36.25ZM52.5 13.75C58.0138 13.75 62.5 18.2363 62.5 23.75C62.5 29.2638 58.0138 33.75 52.5 33.75C46.9863 33.75 42.5 29.2638 42.5 23.75C42.5 18.2363 46.9863 13.75 52.5 13.75Z" fill="#2E303F"/>
<path d="M71.25 71.25H73.75V73.75H71.25V71.25Z" fill="#2E303F"/>
<path d="M66.25 71.25H68.75V73.75H66.25V71.25Z" fill="#2E303F"/>
<path d="M56.25 71.25H58.75V73.75H56.25V71.25Z" fill="#2E303F"/>
<path d="M61.25 71.25H63.75V73.75H61.25V71.25Z" fill="#2E303F"/>
<path d="M56.25 66.25H73.75V68.75H56.25V66.25Z" fill="#2E303F"/>
<path d="M56.25 61.25H73.75V63.75H56.25V61.25Z" fill="#2E303F"/>
<path d="M57.5 22.5H53.75V16.25H51.25V25H57.5V22.5Z" fill="#2E303F"/>
<path d="M3.75 42.5C3.75 44.5675 5.4325 46.25 7.5 46.25H17.5C18.1887 46.25 18.75 46.8112 18.75 47.5C18.75 48.1888 18.1887 48.75 17.5 48.75H10C7.9325 48.75 6.25 50.4325 6.25 52.5C6.25 54.5675 7.9325 56.25 10 56.25H20C20.6887 56.25 21.25 56.8113 21.25 57.5C21.25 58.1887 20.6887 58.75 20 58.75H5C2.9325 58.75 1.25 60.4325 1.25 62.5C1.25 64.5675 2.9325 66.25 5 66.25H17.5C18.1887 66.25 18.75 66.8113 18.75 67.5C18.75 68.1887 18.1887 68.75 17.5 68.75H10C7.9325 68.75 6.25 70.4325 6.25 72.5C6.25 74.5675 7.9325 76.25 10 76.25H23.75V73.75H10C9.31125 73.75 8.75 73.1888 8.75 72.5C8.75 71.8112 9.31125 71.25 10 71.25H17.5C19.5675 71.25 21.25 69.5675 21.25 67.5C21.25 65.4325 19.5675 63.75 17.5 63.75H5C4.31125 63.75 3.75 63.1887 3.75 62.5C3.75 61.8113 4.31125 61.25 5 61.25H20C22.0675 61.25 23.75 59.5675 23.75 57.5C23.75 55.4325 22.0675 53.75 20 53.75H10C9.31125 53.75 8.75 53.1888 8.75 52.5C8.75 51.8112 9.31125 51.25 10 51.25H17.5C19.5675 51.25 21.25 49.5675 21.25 47.5C21.25 45.4325 19.5675 43.75 17.5 43.75H7.5C6.81125 43.75 6.25 43.1887 6.25 42.5C6.25 41.8112 6.81125 41.25 7.5 41.25H23.75V38.75H7.5C5.4325 38.75 3.75 40.4325 3.75 42.5Z" fill="#2E303F"/>
</svg>
