<svg width="80" height="80" viewBox="0 0 80 80" fill="none" xmlns="http://www.w3.org/2000/svg">
<path d="M16.25 15V22.5H17.5C17.5 20.4288 19.1788 18.75 21.25 18.75H22.5V15H16.25Z" fill="#00b5ff"/>
<path d="M40 15V18.75H41.25C43.3212 18.75 45 20.4288 45 22.5H46.25V15H40Z" fill="#00b5ff"/>
<path d="M38.1786 36.8012L37.4324 36.5874L37.4111 36.8174C36.5486 46.0149 30.0236 56.2499 26.2499 56.2499L26.2336 57.4999H33.7499C34.6499 57.4999 35.4636 57.8299 36.1099 58.3574C40.4424 53.4087 43.9174 45.3599 44.7936 38.2112C42.5624 37.8874 40.3511 37.4224 38.1786 36.8012Z" fill="#00b5ff"/>
<path d="M76.25 10H51.25V12.5V27.5H58.75V28.455C58.75 29.885 59.545 31.17 60.8225 31.81L60.9175 31.8575C59.345 35.2725 55.9212 37.5 52.095 37.5C47.5012 37.5 42.935 36.86 38.5225 35.5988L37.2288 35.23L36.6512 33.5C39.2938 32.7712 41.25 30.3713 41.25 27.5C44.0075 27.5 46.25 25.2575 46.25 22.5C46.25 19.7425 44.0075 17.5 41.25 17.5V16.25H47.5C49.5675 16.25 51.25 14.5675 51.25 12.5C51.25 10.4325 49.5675 8.75 47.5 8.75H46.1613C45.5525 4.515 41.9012 1.25 37.5 1.25H25C20.1763 1.25 16.25 5.17625 16.25 10V16.25H21.25V17.5C18.4925 17.5 16.25 19.7425 16.25 22.5C16.25 25.2575 18.4925 27.5 21.25 27.5C21.25 30.3713 23.2075 32.7712 25.8488 33.5L25.3425 35.0175C13.3563 35.495 3.75 45.3963 3.75 57.5C3.75 62.83 6.805 67.4512 11.25 69.7325V75C11.25 77.0675 12.9325 78.75 15 78.75H30H35H46.25V47.5H52.5C61.46 47.5 68.75 40.21 68.75 31.25V27.5H76.25V10ZM65.7875 17.5H61.7125L55.8787 12.5H71.6225L65.7875 17.5ZM59.33 18.75L53.75 23.5337V13.9675L59.33 18.75ZM61.7113 20H65.7887L71.6225 25H55.8775L61.7113 20ZM68.17 18.75L73.75 13.9675V23.5337L68.17 18.75ZM25.6725 37.5288L29.65 42.5L27.0225 45.7825L25.6475 37.53C25.6562 37.53 25.665 37.53 25.6725 37.5288ZM27.6513 35.9987L28.4 33.75H34.0987L34.8487 36L31.25 40.4987L27.6513 35.9987ZM43.75 22.5C43.75 23.8787 42.6287 25 41.25 25V20C42.6287 20 43.75 21.1213 43.75 22.5ZM47.5 11.25C48.19 11.25 48.75 11.81 48.75 12.5C48.75 13.19 48.19 13.75 47.5 13.75H31.25L32.75 11.7488C32.985 11.4363 33.3587 11.25 33.75 11.25H47.5ZM18.75 10C18.75 6.55375 21.5537 3.75 25 3.75H37.5C40.5187 3.75 43.0437 5.90125 43.6237 8.75H33.75C32.5763 8.75 31.4538 9.31 30.7512 10.25L28.125 13.75H18.75V10ZM18.75 22.5C18.75 21.1213 19.8713 20 21.25 20V25C19.8713 25 18.75 23.8787 18.75 22.5ZM23.75 27.5V16.25H38.75V27.5C38.75 29.5675 37.0675 31.25 35 31.25H27.5C25.4325 31.25 23.75 29.5675 23.75 27.5ZM30 76.25H15C14.31 76.25 13.75 75.69 13.75 75V70.7175C14.9438 71.0563 16.1987 71.25 17.5 71.25H20H21.25H28.75C30.1287 71.25 31.25 70.1288 31.25 68.75V61.25C31.25 59.8713 32.3713 58.75 33.75 58.75C35.1287 58.75 36.25 59.8713 36.25 61.25V75C36.25 75.69 35.69 76.25 35 76.25H30ZM13.75 56.2162C13.75 54.85 14.15 53.5287 14.9088 52.3912L16.25 50.3788V56.25C15.3713 56.25 14.5325 56.4787 13.7962 56.8937C13.775 56.6688 13.75 56.445 13.75 56.2162ZM16.25 58.75H29.445C29.015 59.4888 28.75 60.335 28.75 61.25V68.75H25.555C25.985 68.0113 26.25 67.165 26.25 66.25C26.25 63.4925 24.0075 61.25 21.25 61.25H20.885C20.1138 61.25 19.3412 61.4325 18.6487 61.7775L17.5 62.3525C16.2037 61.6888 15.1963 60.6525 14.55 59.4188C15.0063 58.9925 15.6088 58.75 16.25 58.75ZM18.75 64.5225L19.7663 64.0137C20.1125 63.8412 20.4988 63.75 20.885 63.75H21.25C22.6287 63.75 23.75 64.8713 23.75 66.25C23.75 67.6288 22.6287 68.75 21.25 68.75H20H18.75V64.5225ZM52.5 45H43.75V76.25H38.52C38.66 75.8575 38.75 75.44 38.75 75V61.25C38.75 58.4925 36.5075 56.25 33.75 56.25H18.75V45.7325L15.8837 42.8662L14.1163 44.6338L15.8913 46.4087L12.8275 51.0038C11.7963 52.5525 11.25 54.3537 11.25 56.2162C11.25 59.7225 13.165 62.8713 16.25 64.5062V68.6775C10.6337 68.0525 6.25 63.2812 6.25 57.5C6.25 47.5288 13.5937 39.2612 23.1525 37.765L25.4775 51.7175L31.25 44.5013L34.02 47.9637C34.4338 47.1462 34.83 46.3025 35.19 45.4238L32.85 42.5L36.7062 37.68L37.8338 38.0025C42.4712 39.3275 47.2675 40 52.095 40C57.0562 40 61.4737 37.0213 63.3625 32.5H66.1863C65.5525 39.4975 59.66 45 52.5 45ZM66.25 30H62.795L61.94 29.5725C61.515 29.36 61.25 28.9325 61.25 28.455V27.5H66.25V30Z" fill="#2E303F"/>
<path d="M27.5 21.25C28.1904 21.25 28.75 20.6904 28.75 20C28.75 19.3096 28.1904 18.75 27.5 18.75C26.8096 18.75 26.25 19.3096 26.25 20C26.25 20.6904 26.8096 21.25 27.5 21.25Z" fill="#2E303F"/>
<path d="M35 21.25C35.6904 21.25 36.25 20.6904 36.25 20C36.25 19.3096 35.6904 18.75 35 18.75C34.3096 18.75 33.75 19.3096 33.75 20C33.75 20.6904 34.3096 21.25 35 21.25Z" fill="#2E303F"/>
<path d="M35.9861 25.8224L36.1173 25.5587L33.8811 24.4399L33.7498 24.7049C33.2736 25.6574 32.3161 26.2499 31.2498 26.2499C30.1836 26.2499 29.2261 25.6574 28.7498 24.7049L28.6186 24.4412L26.3823 25.5599L26.5136 25.8237C27.4161 27.6287 29.2311 28.7499 31.2498 28.7499C33.2686 28.7499 35.0836 27.6287 35.9861 25.8224Z" fill="#2E303F"/>
</svg>
