<svg width="16" height="12" viewBox="0 0 16 12" fill="none" xmlns="http://www.w3.org/2000/svg">
<path d="M16.1345 0H0V12H16.1345V0Z" fill="white"/>
<path d="M10.7563 4.34694L16.0864 0.551017V0H15.7503L9.65186 4.34694H10.7563Z" fill="#BD0034"/>
<path d="M10.5162 7.89795L16.0864 11.8775V11.0816L11.6207 7.89795H10.5162Z" fill="#BD0034"/>
<path d="M0 0.918366L4.75391 4.34694H5.85835L0 0.122437V0.918366Z" fill="#BD0034"/>
<path d="M5.61825 7.89795L0 11.9388V12H1.00841L6.72269 7.89795H5.61825Z" fill="#BD0034"/>
<path d="M14.982 0H9.36377V4.04082L14.982 0Z" fill="#1A237B"/>
<path d="M6.86679 0H1.24854L6.86679 4.04082V0Z" fill="#1A237B"/>
<path d="M16.0864 4.34694V1.59184L12.2449 4.34694H16.0864Z" fill="#1A237B"/>
<path d="M16.0864 10.5918V7.89795H12.2449L16.0864 10.5918Z" fill="#1A237B"/>
<path d="M1.53662 12H6.86675V8.20407L1.53662 12Z" fill="#1A237B"/>
<path d="M9.36377 12H14.6459L9.36377 8.20407V12Z" fill="#1A237B"/>
<path d="M0 7.89795V10.7143L3.93758 7.89795H0Z" fill="#1A237B"/>
<path d="M0 4.34694H3.93758L0 1.46938V4.34694Z" fill="#1A237B"/>
<path d="M7.34695 0V5.0204H0V7.16325H7.34695V12H8.83554V7.16325H16.0864V5.0204H8.83554V0H7.34695Z" fill="#BD0034"/>
</svg>
